<?xml version="1.0" encoding="UTF-8"?>
<svg width="800" height="600" xmlns="http://www.w3.org/2000/svg">
  <!-- Background -->
  <rect width="800" height="600" fill="#f8f9fa"/>
  
  <!-- Title -->
  <text x="400" y="30" text-anchor="middle" font-family="Arial, sans-serif" font-size="20" font-weight="bold" fill="#2c3e50">
    System Architecture Diagram
  </text>
  
  <!-- Client Layer -->
  <rect x="50" y="80" width="120" height="60" fill="#3498db" stroke="#2980b9" stroke-width="2" rx="5"/>
  <text x="110" y="105" text-anchor="middle" font-family="Arial, sans-serif" font-size="14" fill="white">Client</text>
  <text x="110" y="125" text-anchor="middle" font-family="Arial, sans-serif" font-size="12" fill="white">Web/Mobile</text>
  
  <!-- Load Balancer -->
  <rect x="250" y="80" width="120" height="60" fill="#e74c3c" stroke="#c0392b" stroke-width="2" rx="5"/>
  <text x="310" y="105" text-anchor="middle" font-family="Arial, sans-serif" font-size="14" fill="white">Load Balancer</text>
  <text x="310" y="125" text-anchor="middle" font-family="Arial, sans-serif" font-size="12" fill="white">Nginx/HAProxy</text>
  
  <!-- API Gateway -->
  <rect x="450" y="80" width="120" height="60" fill="#9b59b6" stroke="#8e44ad" stroke-width="2" rx="5"/>
  <text x="510" y="105" text-anchor="middle" font-family="Arial, sans-serif" font-size="14" fill="white">API Gateway</text>
  <text x="510" y="125" text-anchor="middle" font-family="Arial, sans-serif" font-size="12" fill="white">Kong/Zuul</text>
  
  <!-- Service Layer -->
  <rect x="150" y="200" width="100" height="60" fill="#2ecc71" stroke="#27ae60" stroke-width="2" rx="5"/>
  <text x="200" y="225" text-anchor="middle" font-family="Arial, sans-serif" font-size="14" fill="white">Service A</text>
  <text x="200" y="245" text-anchor="middle" font-family="Arial, sans-serif" font-size="12" fill="white">Microservice</text>
  
  <rect x="300" y="200" width="100" height="60" fill="#2ecc71" stroke="#27ae60" stroke-width="2" rx="5"/>
  <text x="350" y="225" text-anchor="middle" font-family="Arial, sans-serif" font-size="14" fill="white">Service B</text>
  <text x="350" y="245" text-anchor="middle" font-family="Arial, sans-serif" font-size="12" fill="white">Microservice</text>
  
  <rect x="450" y="200" width="100" height="60" fill="#2ecc71" stroke="#27ae60" stroke-width="2" rx="5"/>
  <text x="500" y="225" text-anchor="middle" font-family="Arial, sans-serif" font-size="14" fill="white">Service C</text>
  <text x="500" y="245" text-anchor="middle" font-family="Arial, sans-serif" font-size="12" fill="white">Microservice</text>
  
  <!-- Database Layer -->
  <rect x="200" y="320" width="100" height="60" fill="#f39c12" stroke="#e67e22" stroke-width="2" rx="5"/>
  <text x="250" y="345" text-anchor="middle" font-family="Arial, sans-serif" font-size="14" fill="white">Database</text>
  <text x="250" y="365" text-anchor="middle" font-family="Arial, sans-serif" font-size="12" fill="white">PostgreSQL</text>
  
  <rect x="350" y="320" width="100" height="60" fill="#e67e22" stroke="#d35400" stroke-width="2" rx="5"/>
  <text x="400" y="345" text-anchor="middle" font-family="Arial, sans-serif" font-size="14" fill="white">Cache</text>
  <text x="400" y="365" text-anchor="middle" font-family="Arial, sans-serif" font-size="12" fill="white">Redis</text>
  
  <!-- Message Queue -->
  <rect x="500" y="320" width="100" height="60" fill="#8e44ad" stroke="#9b59b6" stroke-width="2" rx="5"/>
  <text x="550" y="345" text-anchor="middle" font-family="Arial, sans-serif" font-size="14" fill="white">Message Queue</text>
  <text x="550" y="365" text-anchor="middle" font-family="Arial, sans-serif" font-size="12" fill="white">RabbitMQ</text>
  
  <!-- Arrows -->
  <!-- Client to Load Balancer -->
  <path d="M 170 110 L 240 110" stroke="#34495e" stroke-width="2" fill="none" marker-end="url(#arrowhead)"/>
  
  <!-- Load Balancer to API Gateway -->
  <path d="M 370 110 L 440 110" stroke="#34495e" stroke-width="2" fill="none" marker-end="url(#arrowhead)"/>
  
  <!-- API Gateway to Services -->
  <path d="M 510 140 L 510 160 L 200 160 L 200 190" stroke="#34495e" stroke-width="2" fill="none" marker-end="url(#arrowhead)"/>
  <path d="M 510 160 L 350 160 L 350 190" stroke="#34495e" stroke-width="2" fill="none" marker-end="url(#arrowhead)"/>
  <path d="M 510 160 L 500 160 L 500 190" stroke="#34495e" stroke-width="2" fill="none" marker-end="url(#arrowhead)"/>
  
  <!-- Services to Database -->
  <path d="M 200 260 L 200 280 L 250 280 L 250 310" stroke="#34495e" stroke-width="2" fill="none" marker-end="url(#arrowhead)"/>
  <path d="M 350 260 L 350 280 L 400 280 L 400 310" stroke="#34495e" stroke-width="2" fill="none" marker-end="url(#arrowhead)"/>
  <path d="M 500 260 L 500 280 L 550 280 L 550 310" stroke="#34495e" stroke-width="2" fill="none" marker-end="url(#arrowhead)"/>
  
  <!-- Arrow marker definition -->
  <defs>
    <marker id="arrowhead" markerWidth="10" markerHeight="7" refX="9" refY="3.5" orient="auto">
      <polygon points="0 0, 10 3.5, 0 7" fill="#34495e"/>
    </marker>
  </defs>
  
  <!-- Legend -->
  <rect x="620" y="80" width="150" height="200" fill="none" stroke="#95a5a6" stroke-width="1" rx="5"/>
  <text x="695" y="100" text-anchor="middle" font-family="Arial, sans-serif" font-size="16" font-weight="bold" fill="#2c3e50">Legend</text>
  
  <rect x="630" y="115" width="20" height="15" fill="#3498db"/>
  <text x="655" y="127" font-family="Arial, sans-serif" font-size="12" fill="#2c3e50">Client Layer</text>
  
  <rect x="630" y="140" width="20" height="15" fill="#e74c3c"/>
  <text x="655" y="152" font-family="Arial, sans-serif" font-size="12" fill="#2c3e50">Load Balancer</text>
  
  <rect x="630" y="165" width="20" height="15" fill="#9b59b6"/>
  <text x="655" y="177" font-family="Arial, sans-serif" font-size="12" fill="#2c3e50">API Gateway</text>
  
  <rect x="630" y="190" width="20" height="15" fill="#2ecc71"/>
  <text x="655" y="202" font-family="Arial, sans-serif" font-size="12" fill="#2c3e50">Services</text>
  
  <rect x="630" y="215" width="20" height="15" fill="#f39c12"/>
  <text x="655" y="227" font-family="Arial, sans-serif" font-size="12" fill="#2c3e50">Data Layer</text>
  
  <!-- Instructions -->
  <text x="400" y="500" text-anchor="middle" font-family="Arial, sans-serif" font-size="12" fill="#7f8c8d">
    This is a template diagram. Modify components, connections, and styling as needed.
  </text>
  <text x="400" y="520" text-anchor="middle" font-family="Arial, sans-serif" font-size="12" fill="#7f8c8d">
    Use tools like draw.io, Lucidchart, or edit this SVG directly for your architecture.
  </text>
</svg>
